<svg viewBox="0 0 616 364" version="1.1" xmlns="http://www.w3.org/2000/svg" x="0" y="0" width="616" height="364" fill="#72A2D8"><path d="M 327.6631 52.4063 L 348.8348 52.4063 C 364.0268 52.4063 375.2216 54.0156 382.4193 57.2031 C 389.6015 60.4063 394.3324 66.1406 396.5963 74.4063 C 398.8603 82.6719 400 94.5313 400 110 C 400 123.3438 398.3918 133.6719 395.2067 141 C 392.006 148.3438 386.6817 153.4688 379.2186 156.4063 C 371.7554 159.3438 361.4974 160.7969 348.4445 160.7969 L 327.6631 160.7969 L 327.6631 52.4063 L 327.6631 52.4063 L 327.6631 52.4063 ZM 327.6631 344 L 327.6631 193.2031 L 363.2304 193.2031 C 380.8111 193.2031 395.4722 189.8125 407.1978 183 C 418.9079 176.2031 427.7763 166.5313 433.7719 154 C 439.7674 141.4688 442.7651 126.6719 442.7651 109.5938 C 442.7651 90.6719 440.0952 74.5469 434.7711 61.2031 C 429.4313 47.875 420.9688 37.6719 409.3837 30.6094 C 397.7986 23.5469 382.2788 20 362.8245 20 L 282.4935 20 L 282.4935 344 L 327.6631 344 L 327.6631 344 L 327.6631 344 Z"/><path d="M 615.6368 344 L 615.6368 311.5938 L 534.5095 311.5938 L 534.5095 192.7969 L 599.6487 192.7969 L 599.6487 160.7969 L 534.5095 160.7969 L 534.5095 53.5938 L 616 53.75 L 616 20.245 L 489.3399 20 L 489.3399 344 L 615.6368 344 L 615.6368 344 Z"/><path d="M 170.0001 364 C 170.0001 355.7156 162.8366 349 153.9999 349 C 145.1635 349 137.9999 355.7156 137.9999 364 L 170.0001 364 ZM 96.0001 364 C 96.0001 355.7156 88.8365 349 80.0001 349 C 71.1634 349 63.9999 355.7156 63.9999 364 L 96.0001 364 ZM 85.735 163.0451 L 39.3649 45.97 C 37.1351 37.3578 29.3094 31 20 31 C 8.9541 31 0 39.9541 0 51 C 0 54.5833 0.9446 57.9462 2.595 60.855 L 53.13 185.1101 L 61.4948 343.77 L 61.4451 344.0001 L 100.22 344.0001 L 118 259.79 L 135.78 344.0001 L 174.5551 344.0001 L 174.5049 343.7549 L 182.8849 184.7751 L 233.405 60.855 C 235.0556 57.9462 236 54.5833 236 51 C 236 39.9541 227.0458 31 216 31 C 207.2429 31 199.8988 36.5406 197.2025 44.3667 C 196.7264 44.9511 150.2348 162.885 150.2348 162.885 L 134.845 90 L 101.1548 90 L 85.735 163.0451 Z"/><circle cx="117" cy="30" r="30" /></svg>
